<?xml version="1.0" encoding="UTF-8"?>
<!DOCTYPE svg PUBLIC "-//W3C//DTD SVG 1.1//EN" "http://www.w3.org/Graphics/SVG/1.1/DTD/svg11.dtd">
<svg xmlns="http://www.w3.org/2000/svg" xml:space="preserve" width="256px" height="256px" version="1.1" style="shape-rendering:geometricPrecision; text-rendering:geometricPrecision; image-rendering:optimizeQuality; fill-rule:evenodd; clip-rule:evenodd"
viewBox="0 0 256 256"
 xmlns:xlink="http://www.w3.org/1999/xlink"
 xmlns:xodm="http://www.corel.com/coreldraw/odm/2003">
  <path fill="#999999" d="M212.17 195.2c4.68,4.68 4.68,12.28 0,16.97 -4.69,4.68 -12.29,4.68 -16.97,0l-67.2 -67.2 -67.2 67.2c-4.68,4.68 -12.28,4.68 -16.97,0 -4.68,-4.69 -4.68,-12.29 0,-16.97l67.2 -67.2 -67.2 -67.2c-4.68,-4.68 -4.68,-12.28 0,-16.97 4.69,-4.68 12.29,-4.68 16.97,0l67.2 67.2 67.2 -67.2c4.68,-4.68 12.28,-4.68 16.97,0 4.68,4.69 4.68,12.29 0,16.97l-67.2 67.2 67.2 67.2z"/>
</svg>
