<?xml version="1.0" encoding="UTF-8"?>
<!DOCTYPE svg PUBLIC "-//W3C//DTD SVG 1.1//EN" "http://www.w3.org/Graphics/SVG/1.1/DTD/svg11.dtd">
<svg xmlns="http://www.w3.org/2000/svg" xml:space="preserve" width="256px" height="256px" version="1.1" style="shape-rendering:geometricPrecision; text-rendering:geometricPrecision; image-rendering:optimizeQuality; fill-rule:evenodd; clip-rule:evenodd"
viewBox="0 0 256 256"
 xmlns:xlink="http://www.w3.org/1999/xlink">
<path fill="#ab12de" d="M251.61 230.39c5.85,5.86 5.85,15.36 0,21.21 -5.86,5.86 -15.36,5.86 -21.22,0l-60.79 -60.79c-17.72,13.3 -39.74,21.19 -63.6,21.19 -29.27,0 -55.77,-11.87 -74.95,-31.05 -19.18,-19.18 -31.05,-45.68 -31.05,-74.95 0,-29.27 11.87,-55.77 31.05,-74.95 19.18,-19.18 45.68,-31.05 74.95,-31.05 29.27,0 55.77,11.87 74.95,31.05 19.18,19.18 31.05,45.68 31.05,74.95 0,23.86 -7.89,45.88 -21.19,63.6l60.8 60.79zm-91.87 -178.13c-13.75,-13.75 -32.75,-22.26 -53.74,-22.26 -20.99,0 -39.99,8.51 -53.74,22.26 -13.75,13.75 -22.26,32.75 -22.26,53.74 0,20.99 8.51,39.99 22.26,53.74 13.75,13.75 32.75,22.26 53.74,22.26 20.99,0 39.99,-8.51 53.74,-22.26 13.75,-13.75 22.26,-32.75 22.26,-53.74 0,-20.99 -8.51,-39.99 -22.26,-53.74z"/>
</svg>
